<svg width="1440" height="963" viewBox="0 0 1440 963" fill="none" xmlns="http://www.w3.org/2000/svg">
<path d="M408.21 549.882L508.098 441.264L525.556 440.604L633.088 432.158L804.508 189.915L858.628 218.462L1305.46 714.979L593.926 873.328L408.21 549.882Z" fill="url(#paint0_linear_1_3459)"/>
<path d="M2206.67 639.532L2106.79 530.914L2089.28 530.254L1981.8 521.808L1810.38 279.565L1756.26 308.112L1309.42 804.629L2020.96 962.978L2206.67 639.532Z" fill="url(#paint1_linear_1_3459)"/>
<path d="M492.904 676.099L662.814 552.713L731.184 564.839L806.725 555.403L976.021 452.022L1419.79 61.6221L1936.03 1141.29C1936.03 1141.29 301.809 1167.8 326.911 1161.58C351.966 1155.35 492.904 676.146 492.904 676.146V676.099Z" fill="url(#paint2_linear_1_3459)"/>
<path d="M1377.84 1211.5L-103.312 1193.66L-103.029 1081.13L-457.381 891.872L-101.095 249.132L94.2941 5.56771L97.4555 1.65143L98.7766 0L140.912 32.9816L246.698 294.853L247.737 294.523L292.514 279.612L295.77 278.527L312.143 312.736H330.403L512.297 681.762L600.437 791.889H616.81L942.238 629.67L1367.08 1105.8L1377.84 1211.5Z" fill="#8F94C9"/>
<g style="mix-blend-mode:multiply" opacity="0.5">
<path d="M307.141 716.631L297.799 654.914L329.648 679.78L265.95 375.443L282.087 363.034L309.689 389.268L292.467 279.66L292.278 278.338L247.689 294.617L246.84 294.947L80.8468 538.369L57.4434 320.757L72.3065 307.404L82.9229 284.85L97.3612 320.757L82.9229 188.17L97.3612 165.144L117.32 181.706L97.4555 1.74585L94.2941 5.70932L-101.095 249.273L-254.679 521.289L-102.605 887.389L-103.076 1081.22L231.93 916.549L253.163 930.374L217.067 550.071L231.93 545.919L307.094 716.725L307.141 716.631ZM19.6491 628.019L-77.1253 769.901L-69.1512 339.489L-51.7875 332.789L-32.2062 401.206L23.8484 350.813C22.5745 423.335 20.3097 560.074 19.6019 628.019H19.6491Z" fill="#9B8BD6"/>
</g>
<g style="mix-blend-mode:multiply" opacity="0.3">
<path d="M420.524 1160.49V1144.83H367.442L302.045 1113.5L320.73 1087.73L321.155 1055.93L353.853 753.906L406.275 952.456L439.586 938.537L492.763 871.772L508.334 854.314L478.749 784.764L524.565 836.053L541.174 817.463L616.763 791.653L667.815 765.891L937 630.048L951.014 835.865H930.206L935.301 884.228L906.85 933.017L964.603 1082.21L890.713 1142.51L1271.63 1192.72L1338.77 1223.1L320.73 1217.58L420.524 1160.49Z" fill="#9B8BD6"/>
</g>
<g style="mix-blend-mode:multiply" opacity="0.3">
<path d="M930.206 835.865L550.092 938.537L517.818 933.016L935.302 792.597L947.523 784.575L951.014 835.865H930.206Z" fill="#9B8BD6"/>
</g>
<g style="mix-blend-mode:multiply" opacity="0.3">
<path d="M899.631 943.586L645.215 1081.27L964.604 1082.21L899.631 943.586Z" fill="#9B8BD6"/>
</g>
<g style="mix-blend-mode:multiply" opacity="0.3">
<path d="M201.402 386.484L282.086 362.986L306.811 386.484L302.045 348.265L192.342 374.735L83.7248 534.217L-26.6857 707.382L-69.1513 835.864L-138.795 769.995L-171.493 997.47L-14.3707 920.56L231.977 916.455L253.21 927.967L248.539 898.006L-12.672 861.202L0.96405 792.125L41.7311 766.315L54.0461 733.664L9.03262 747.913L80.3748 568.803L217.114 551.298L231.977 545.777L305.537 712.903L297.799 654.914L283.785 648.921L237.922 518.599L136.854 510.342L201.402 386.484Z" fill="#9B8BD6"/>
</g>
<g style="mix-blend-mode:multiply" opacity="0.3">
<path d="M97.3612 165.003L-30.9321 188.029L113.309 150.187L117.32 181.564L97.3612 165.003Z" fill="#9B8BD6"/>
</g>
<g style="mix-blend-mode:multiply" opacity="0.3">
<path d="M82.923 284.708L-117.137 316.51V294.381L82.923 231.768L96.8895 316.51L82.923 284.708Z" fill="#9B8BD6"/>
</g>
<g style="mix-blend-mode:multiply" opacity="0.3">
<path d="M20.3571 570.502L41.7315 331.232L-41.9729 344.585L23.8959 348.265L20.3571 570.502Z" fill="#9B8BD6"/>
</g>
<g style="mix-blend-mode:multiply" opacity="0.5">
<path d="M666.022 805.006L483.845 924.712L517.818 933.016L618.461 960.619L550.092 1094.62L420.524 1142.51L405.992 1144.83H367.442L302.045 1113.5L320.73 1087.73L392.827 997.234L353.004 747.913L367.867 729.04L444.918 931.79L492.763 871.771L508.334 854.313L476.626 779.244L485.544 784.764L441.804 708.326L529.425 830.58L541.174 817.463L616.763 791.653L667.815 765.891L681.735 766.315L666.022 805.006Z" fill="#9B8BD6"/>
</g>
<defs>
<linearGradient id="paint0_linear_1_3459" x1="856.835" y1="1648.61" x2="856.835" y2="-517.609" gradientUnits="userSpaceOnUse">
<stop stop-color="#F1CEC7"/>
<stop offset="0.16" stop-color="#E5C8C9"/>
<stop offset="0.44" stop-color="#C6B9CE"/>
<stop offset="0.82" stop-color="#94A1D8"/>
<stop offset="1" stop-color="#7A94DD"/>
</linearGradient>
<linearGradient id="paint1_linear_1_3459" x1="1758.05" y1="962.978" x2="1758.05" y2="279.565" gradientUnits="userSpaceOnUse">
<stop stop-color="#F1CEC7"/>
<stop offset="1" stop-color="#7A94DD"/>
</linearGradient>
<linearGradient id="paint2_linear_1_3459" x1="1131.35" y1="1350.64" x2="1131.35" y2="-181.659" gradientUnits="userSpaceOnUse">
<stop stop-color="#F1E1DE"/>
<stop offset="1" stop-color="#56689C"/>
</linearGradient>
</defs>
</svg>
