<svg width="1440" height="1024" viewBox="0 0 1440 1024" fill="none" xmlns="http://www.w3.org/2000/svg">
<path d="M281.21 395.882L381.098 287.264L398.556 286.604L506.088 278.158L677.508 35.9153L731.628 64.4616L1178.46 560.979L466.926 719.328L281.21 395.882Z" fill="url(#paint0_linear_1_3459)"/>
<path d="M2079.67 485.532L1979.79 376.914L1962.28 376.254L1854.8 367.808L1683.38 125.565L1629.26 154.112L1182.42 650.629L1893.96 808.978L2079.67 485.532Z" fill="url(#paint1_linear_1_3459)"/>
<path d="M365.904 522.099L535.814 398.713L604.184 410.839L679.725 401.403L849.021 298.022L1292.79 -92.3779L1809.03 987.286C1809.03 987.286 174.809 1013.8 199.911 1007.58C224.966 1001.35 365.904 522.146 365.904 522.146V522.099Z" fill="url(#paint2_linear_1_3459)"/>
<path d="M1250.84 1057.5L-230.312 1039.66L-230.029 927.127L-584.381 737.872L-228.095 95.1315L-32.7059 -148.432L-29.5445 -152.349L-28.2234 -154L13.9119 -121.018L119.698 140.853L120.737 140.523L165.514 125.612L168.77 124.527L185.143 158.736H203.403L385.297 527.762L473.437 637.889H489.81L815.238 475.67L1240.08 951.804L1250.84 1057.5Z" fill="#8F94C9"/>
<g style="mix-blend-mode:multiply" opacity="0.5">
<path d="M180.141 562.631L170.799 500.914L202.648 525.78L138.95 221.443L155.087 209.034L182.689 235.268L165.467 125.66L165.278 124.338L120.689 140.617L119.84 140.947L-46.1532 384.369L-69.5566 166.757L-54.6935 153.404L-44.0771 130.85L-29.6388 166.757L-44.0771 34.1699L-29.6388 11.144L-9.68008 27.7056L-29.5445 -152.254L-32.7059 -148.291L-228.095 95.2731L-381.679 367.289L-229.605 733.389L-230.076 927.221L104.93 762.549L126.163 776.374L90.067 396.071L104.93 391.919L180.094 562.725L180.141 562.631ZM-107.351 474.019L-204.125 615.901L-196.151 185.489L-178.788 178.789L-159.206 247.206L-103.152 196.813C-104.426 269.335 -106.69 406.074 -107.398 474.019H-107.351Z" fill="#9B8BD6"/>
</g>
<g style="mix-blend-mode:multiply" opacity="0.3">
<path d="M293.524 1006.49V990.825H240.442L175.045 959.495L193.73 933.733L194.155 901.931L226.853 599.906L279.275 798.456L312.586 784.537L365.763 717.772L381.334 700.314L351.749 630.764L397.565 682.053L414.174 663.463L489.763 637.653L540.815 611.891L810 476.048L824.014 681.865H803.206L808.301 730.228L779.85 779.017L837.603 928.212L763.713 988.513L1144.63 1038.72L1211.77 1069.1L193.73 1063.58L293.524 1006.49Z" fill="#9B8BD6"/>
</g>
<g style="mix-blend-mode:multiply" opacity="0.3">
<path d="M803.206 681.865L423.092 784.537L390.818 779.016L808.302 638.597L820.523 630.575L824.014 681.865H803.206Z" fill="#9B8BD6"/>
</g>
<g style="mix-blend-mode:multiply" opacity="0.3">
<path d="M772.631 789.586L518.215 927.269L837.604 928.212L772.631 789.586Z" fill="#9B8BD6"/>
</g>
<g style="mix-blend-mode:multiply" opacity="0.3">
<path d="M750.501 995.402L680.858 1062.64L260.826 1070L333.065 1015.22L668.968 994.505V984.361L787.918 962.75L750.501 995.402Z" fill="#9B8BD6"/>
</g>
<g style="mix-blend-mode:multiply" opacity="0.3">
<path d="M74.4017 232.484L155.086 208.986L179.811 232.484L175.045 194.265L65.3423 220.735L-43.2752 380.217L-153.686 553.382L-196.151 681.864L-265.795 615.995L-298.493 843.47L-141.371 766.56L104.977 762.455L126.21 773.967L121.539 744.006L-139.672 707.202L-126.036 638.125L-85.2689 612.315L-72.9539 579.664L-117.967 593.913L-46.6252 414.803L90.114 397.298L104.977 391.777L178.537 558.903L170.799 500.914L156.785 494.921L110.922 364.599L9.85406 356.342L74.4017 232.484Z" fill="#9B8BD6"/>
</g>
<g style="mix-blend-mode:multiply" opacity="0.5">
<path d="M539.022 651.006L356.845 770.712L390.818 779.016L491.461 806.619L423.092 940.622L293.524 988.513L278.992 990.825H240.442L175.045 959.495L193.73 933.733L265.827 843.234L226.004 593.913L240.867 575.04L317.918 777.79L365.763 717.771L381.334 700.313L349.626 625.244L358.544 630.764L314.804 554.326L402.425 676.58L414.174 663.463L489.763 637.653L540.815 611.891L554.735 612.315L539.022 651.006Z" fill="#9B8BD6"/>
</g>
<path style="mix-blend-mode:screen" opacity="0.6" d="M446.589 1008.19C931.365 1008.19 1324.35 758.428 1324.35 450.333C1324.35 142.237 931.365 -107.524 446.589 -107.524C-38.1862 -107.524 -431.175 142.237 -431.175 450.333C-431.175 758.428 -38.1862 1008.19 446.589 1008.19Z" fill="url(#paint3_radial_1_3459)"/>
<defs>
<linearGradient id="paint0_linear_1_3459" x1="729.835" y1="1494.61" x2="729.835" y2="-671.609" gradientUnits="userSpaceOnUse">
<stop stop-color="#F1CEC7"/>
<stop offset="0.16" stop-color="#E5C8C9"/>
<stop offset="0.44" stop-color="#C6B9CE"/>
<stop offset="0.82" stop-color="#94A1D8"/>
<stop offset="1" stop-color="#7A94DD"/>
</linearGradient>
<linearGradient id="paint1_linear_1_3459" x1="1631.05" y1="808.978" x2="1631.05" y2="125.565" gradientUnits="userSpaceOnUse">
<stop stop-color="#F1CEC7"/>
<stop offset="1" stop-color="#7A94DD"/>
</linearGradient>
<linearGradient id="paint2_linear_1_3459" x1="1004.35" y1="1196.64" x2="1004.35" y2="-335.659" gradientUnits="userSpaceOnUse">
<stop stop-color="#F1E1DE"/>
<stop offset="1" stop-color="#56689C"/>
</linearGradient>
<radialGradient id="paint3_radial_1_3459" cx="0" cy="0" r="1" gradientUnits="userSpaceOnUse" gradientTransform="translate(442.332 447.008) scale(876.917 559.611)">
<stop stop-color="#5EAFFF"/>
<stop offset="1"/>
</radialGradient>
</defs>
</svg>
