<svg width="1836" height="1224" viewBox="0 0 1836 1224" fill="none" xmlns="http://www.w3.org/2000/svg">
<path d="M1835.22 1211.5L354.069 1193.66L354.352 1081.13L0 891.872L356.286 249.132L551.675 5.56771L554.837 1.65143L556.158 0L598.293 32.9816L704.08 294.853L705.118 294.523L749.895 279.612L753.151 278.527L769.524 312.736H787.784L969.678 681.762L1057.82 791.889H1074.19L1399.62 629.67L1824.46 1105.8L1835.22 1211.5Z" fill="#8F94C9"/>
<g style="mix-blend-mode:multiply" opacity="0.5">
<path d="M764.522 716.631L755.18 654.914L787.029 679.78L723.331 375.443L739.468 363.034L767.07 389.268L749.848 279.66L749.659 278.338L705.07 294.617L704.221 294.947L538.228 538.369L514.825 320.757L529.688 307.404L540.304 284.85L554.742 320.757L540.304 188.17L554.742 165.144L574.701 181.706L554.837 1.74585L551.675 5.70932L356.286 249.273L202.702 521.289L354.776 887.389L354.305 1081.22L689.311 916.549L710.544 930.374L674.448 550.071L689.311 545.919L764.475 716.725L764.522 716.631ZM477.03 628.019L380.256 769.901L388.23 339.489L405.594 332.789L425.175 401.206L481.23 350.813C479.956 423.335 477.691 560.074 476.983 628.019H477.03Z" fill="#9B8BD6"/>
</g>
<g style="mix-blend-mode:multiply" opacity="0.3">
<path d="M877.905 1160.49V1144.83H824.823L759.426 1113.5L778.111 1087.73L778.536 1055.93L811.234 753.906L863.656 952.456L896.968 938.537L950.144 871.772L965.715 854.314L936.131 784.764L981.946 836.053L998.555 817.463L1074.14 791.653L1125.2 765.891L1394.38 630.048L1408.39 835.865H1387.59L1392.68 884.228L1364.23 933.016L1421.98 1082.21L1348.09 1142.51L1729.01 1192.72L1796.15 1223.1L778.111 1217.58L877.905 1160.49Z" fill="#9B8BD6"/>
</g>
<g style="mix-blend-mode:multiply" opacity="0.3">
<path d="M1387.59 835.865L1007.47 938.537L975.199 933.016L1392.68 792.597L1404.9 784.575L1408.4 835.865H1387.59Z" fill="#9B8BD6"/>
</g>
<g style="mix-blend-mode:multiply" opacity="0.3">
<path d="M1357.01 943.586L1102.6 1081.27L1421.98 1082.21L1357.01 943.586Z" fill="#9B8BD6"/>
</g>
<g style="mix-blend-mode:multiply" opacity="0.3">
<path d="M1334.88 1149.4L1265.24 1216.64L845.207 1224L917.446 1169.22L1253.35 1148.51V1138.36L1372.3 1116.75L1334.88 1149.4Z" fill="#9B8BD6"/>
</g>
<g style="mix-blend-mode:multiply" opacity="0.3">
<path d="M658.783 386.484L739.468 362.986L764.192 386.484L759.426 348.265L649.723 374.735L541.106 534.217L430.695 707.382L388.23 835.864L318.586 769.995L285.888 997.47L443.01 920.56L689.358 916.455L710.591 927.967L705.92 898.006L444.709 861.202L458.345 792.125L499.112 766.315L511.427 733.664L466.414 747.913L537.756 568.803L674.495 551.298L689.358 545.777L762.918 712.903L755.18 654.914L741.166 648.921L695.303 518.599L594.235 510.342L658.783 386.484Z" fill="#9B8BD6"/>
</g>
<g style="mix-blend-mode:multiply" opacity="0.3">
<path d="M554.742 165.003L426.449 188.029L570.69 150.187L574.701 181.564L554.742 165.003Z" fill="#9B8BD6"/>
</g>
<g style="mix-blend-mode:multiply" opacity="0.3">
<path d="M540.304 284.708L340.244 316.51V294.381L540.304 231.768L554.27 316.51L540.304 284.708Z" fill="#9B8BD6"/>
</g>
<g style="mix-blend-mode:multiply" opacity="0.3">
<path d="M477.738 570.502L499.112 331.232L415.408 344.585L481.277 348.265L477.738 570.502Z" fill="#9B8BD6"/>
</g>
<g style="mix-blend-mode:multiply" opacity="0.5">
<path d="M1123.4 805.006L941.226 924.712L975.199 933.016L1075.84 960.619L1007.47 1094.62L877.905 1142.51L863.373 1144.83H824.823L759.426 1113.5L778.111 1087.73L850.208 997.234L810.385 747.913L825.248 729.04L902.299 931.79L950.144 871.771L965.715 854.313L934.007 779.244L942.925 784.764L899.185 708.326L986.806 830.58L998.555 817.463L1074.14 791.653L1125.2 765.891L1139.12 766.315L1123.4 805.006Z" fill="#9B8BD6"/>
</g>
</svg>
