<svg width="2965" height="1092" viewBox="0 0 2965 1092" fill="none" xmlns="http://www.w3.org/2000/svg">
<path fill-rule="evenodd" clip-rule="evenodd" d="M2752.33 2.05029L2658.05 1006.99L2743.42 998.58L2828.28 2.05029H2752.33Z" fill="url(#paint0_linear_1_404)"/>
<path fill-rule="evenodd" clip-rule="evenodd" d="M2778.44 587.54L2828.28 572.978V578.586L2777.73 595.951L2778.44 587.54Z" fill="#643046"/>
<path fill-rule="evenodd" clip-rule="evenodd" d="M2713.46 416.396L2704.38 407.483V387.816H2716.14L2713.46 416.396Z" fill="#481E46"/>
<path fill-rule="evenodd" clip-rule="evenodd" d="M2751.49 909.535L2806.98 910.498V913.134H2750.7L2751.49 909.535Z" fill="#643046"/>
<path opacity="0.6" fill-rule="evenodd" clip-rule="evenodd" d="M2743.42 998.58L2803 298.98L2750.7 758.183L2743.17 796.471L2815.47 2.05029H2799.45L2768.52 477.949L2691.28 1003.69L2710.57 1001.8L2739.4 812.204L2724.67 1000.42L2743.42 998.58Z" fill="#401E2D"/>
<path opacity="0.6" fill-rule="evenodd" clip-rule="evenodd" d="M2661.82 1006.41L2713.46 416.396L2658.05 1006.99L2661.82 1006.41Z" fill="#401E2D"/>
<path opacity="0.6" fill-rule="evenodd" clip-rule="evenodd" d="M2716.14 387.816L2728.81 366.893V517.534L2685.76 1004.23L2737.56 507.952V338.481L2716.14 387.816Z" fill="#401E2D"/>
<path opacity="0.6" fill-rule="evenodd" clip-rule="evenodd" d="M2777.73 2.05029L2719.23 354.926L2783.42 2.05029H2777.73Z" fill="#401E2D"/>
<path opacity="0.2" fill-rule="evenodd" clip-rule="evenodd" d="M2799.45 2.05029L2710.57 1001.8L2743.42 998.58L2828.28 2.05029H2799.45Z" fill="#242C4D"/>
<path fill-rule="evenodd" clip-rule="evenodd" d="M2176.67 976.946L2205.21 740.608H2221.32L2192.11 917.36L2232.24 719.769L2266.43 724.581L2213.16 932.466L2176.67 976.946Z" fill="#4E3B2F"/>
<path fill-rule="evenodd" clip-rule="evenodd" d="M2205.21 963.849L2256.47 779.691L2266.43 785.507L2207.26 968.494L2205.21 963.849Z" fill="#4E3B2F"/>
<path fill-rule="evenodd" clip-rule="evenodd" d="M2153.37 977.49L2171.57 719.769H2113.11L2099.72 961.757L2153.37 977.49Z" fill="#4E3B2F"/>
<path fill-rule="evenodd" clip-rule="evenodd" d="M2205.21 980.545L2296.27 716.422L2302.5 724.582L2207.26 980.545H2205.21Z" fill="#4E3B2F"/>
<path fill-rule="evenodd" clip-rule="evenodd" d="M2665.34 1006.41L2625.33 771.741L2640.77 767.18L2663.16 944.894L2639.31 720.104L2677.47 707.342L2695.67 1001.17L2665.34 1006.41Z" fill="#4E3B2F"/>
<path fill-rule="evenodd" clip-rule="evenodd" d="M2688.94 985.734L2685.59 794.588L2696.8 797.35L2692.24 989.584L2688.94 985.734Z" fill="#4E3B2F"/>
<path fill-rule="evenodd" clip-rule="evenodd" d="M2693.71 1001.76L2705.72 722.657L2714.04 728.683L2695.67 1001.18L2693.71 1001.76Z" fill="#4E3B2F"/>
<path fill-rule="evenodd" clip-rule="evenodd" d="M2644.5 1008.87L2619.1 956.694L2615.62 959.079L2642.45 1009.54L2644.5 1008.87Z" fill="#4E3B2F"/>
<path fill-rule="evenodd" clip-rule="evenodd" d="M2639.6 1009.84L2612.36 989.584L2611.27 993.099L2639.6 1009.84Z" fill="#4E3B2F"/>
<path fill-rule="evenodd" clip-rule="evenodd" d="M2756.05 993.099L2770.37 912.673L2776.85 915.142L2760.41 992.596L2756.05 993.099Z" fill="#4E3B2F"/>
<path fill-rule="evenodd" clip-rule="evenodd" d="M2500.93 1026.83L2518.17 976.947L2523.52 978.914L2504.53 1025.57L2500.93 1026.83Z" fill="#4E3B2F"/>
<path fill-rule="evenodd" clip-rule="evenodd" d="M1979.88 1076.96L2098.93 14.6036H2256.01L2133.91 1076.96H1979.88Z" fill="url(#paint1_linear_1_404)"/>
<path fill-rule="evenodd" clip-rule="evenodd" d="M2034.32 591.139L1954.81 557.663V545.989L2036.95 575.405L2034.32 591.139Z" fill="#3D2227"/>
<path fill-rule="evenodd" clip-rule="evenodd" d="M2081.48 170.559H2053.78V164.951L2083.19 154.992L2081.48 170.559Z" fill="#3D2227"/>
<path fill-rule="evenodd" clip-rule="evenodd" d="M1979.88 1076.96L2027.37 653.236L2000.97 962.05L2003.77 972.302L2016.66 956.233L2110.48 922.088V944.559V975.942L2100.43 1007.16L2125.87 1032.06V853.547L2166.17 796.178L2133.91 1076.96H1979.88Z" fill="#634911"/>
<path fill-rule="evenodd" clip-rule="evenodd" d="M2128.8 828.942V806.179L2159.89 766.845L2144.33 809.819L2128.8 828.942Z" fill="#634911"/>
<path fill-rule="evenodd" clip-rule="evenodd" d="M2120.89 894.973V884.679H2116.25L2117.92 897.4L2120.89 894.973Z" fill="#634911"/>
<path fill-rule="evenodd" clip-rule="evenodd" d="M2026.16 931.712L2036.95 918.489L2085.12 899.241V919.117L2026.16 931.712Z" fill="#634911"/>
<path fill-rule="evenodd" clip-rule="evenodd" d="M2026.16 743.537V697.09L2036.95 663.405L2026.16 743.537Z" fill="#634911"/>
<path fill-rule="evenodd" clip-rule="evenodd" d="M2031.56 797.893L2036.95 760.317L2053.36 743.537L2031.56 797.893Z" fill="#634911"/>
<path opacity="0.6" fill-rule="evenodd" clip-rule="evenodd" d="M2133.91 1076.96L2256.01 14.6036H2210.69L2142.44 480.878L2053.78 997.367L2144.33 630.682L2208.02 351.997L2154.87 678.511L2055.62 1076.96H2042.44L2053.36 1012.77L2026.16 1077.67L2133.91 1076.96Z" fill="#45162D"/>
<path opacity="0.6" fill-rule="evenodd" clip-rule="evenodd" d="M2173.24 14.6036L2068.51 541.093L2147.93 52.4312L2142.45 14.6036H2173.24Z" fill="#45162D"/>
<path opacity="0.6" fill-rule="evenodd" clip-rule="evenodd" d="M1988.21 1076.96L2068.51 541.093L1992.98 1076.96H1988.21Z" fill="#45162D"/>
<path opacity="0.6" fill-rule="evenodd" clip-rule="evenodd" d="M2100.43 732.448H2117.92L2173.24 497.114L2160.52 357.269L2100.43 732.448Z" fill="#45162D"/>
<path opacity="0.6" fill-rule="evenodd" clip-rule="evenodd" d="M2016.16 912.338L2044.65 810.405L2110.48 667.212L2016.16 912.338Z" fill="#45162D"/>
<g style="mix-blend-mode:soft-light">
<path fill-rule="evenodd" clip-rule="evenodd" d="M2098.93 14.6036H2142.45L2149.39 43.2672L2067.12 550.131L2023.56 687.131L2098.93 14.6036Z" fill="#F5DEDE"/>
</g>
<g style="mix-blend-mode:soft-light">
<path fill-rule="evenodd" clip-rule="evenodd" d="M2028.33 835.679L2047.42 690.771L2079.09 643.068L2028.33 835.679Z" fill="#957B83"/>
</g>
<path opacity="0.2" fill-rule="evenodd" clip-rule="evenodd" d="M2210.69 14.6036L2026.16 1077.67L2133.91 1076.96L2256.01 14.6036H2210.69Z" fill="#242C4D"/>
<path fill-rule="evenodd" clip-rule="evenodd" d="M2173.24 1076.96L2275.72 14.6036H2314.51L2214.13 1076.96H2173.24Z" fill="url(#paint2_linear_1_404)"/>
<path fill-rule="evenodd" clip-rule="evenodd" d="M2243.88 749.939L2283.92 729.017L2290.66 733.536L2243.42 766.845L2243.88 749.939Z" fill="#3D2227"/>
<path fill-rule="evenodd" clip-rule="evenodd" d="M2208.89 707.007L2199.44 694.788V687.131L2210.57 689.6L2208.89 707.007Z" fill="#3D2227"/>
<path fill-rule="evenodd" clip-rule="evenodd" d="M2276.81 413.592L2294.8 451.922L2286.06 465.354H2270.36L2276.81 413.592Z" fill="#3D2227"/>
<path opacity="0.6" fill-rule="evenodd" clip-rule="evenodd" d="M2173.24 1076.96L2243.88 391.707L2181.24 1067.92L2218.1 969.665L2270.36 176.542L2311.79 43.2671L2300.49 162.775L2269.74 254.792L2242.5 630.305L2266.72 520.505L2214.13 1076.96H2173.24Z" fill="#45162D"/>
<path opacity="0.2" fill-rule="evenodd" clip-rule="evenodd" d="M2297.77 14.6036L2195.59 1076.08L2214.13 1076.96L2314.51 14.6036H2297.77Z" fill="#242C4D"/>
<path fill-rule="evenodd" clip-rule="evenodd" d="M2319.7 1091.52L2364.26 18.7881H2478L2433.68 1091.52H2319.7Z" fill="url(#paint3_linear_1_404)"/>
<path fill-rule="evenodd" clip-rule="evenodd" d="M2324.3 980.127L2269.4 935.144V929.704L2325.22 958.451L2324.3 980.127Z" fill="#3D2227"/>
<path fill-rule="evenodd" clip-rule="evenodd" d="M2445.69 800.362H2458.79V790.11L2445.69 780.862V800.362Z" fill="#3D2227"/>
<path fill-rule="evenodd" clip-rule="evenodd" d="M2340.5 591.139L2325.22 581.096V515.024L2344.3 499.457L2340.5 591.139Z" fill="#3D2227"/>
<path fill-rule="evenodd" clip-rule="evenodd" d="M2464.48 345.804L2517.33 227.593H2514.19L2465.15 330.029L2464.48 345.804Z" fill="#3D2227"/>
<path fill-rule="evenodd" clip-rule="evenodd" d="M2353.22 285.213L2342.63 280.777V275.965L2353.22 280.61V285.213Z" fill="#3D2227"/>
<path fill-rule="evenodd" clip-rule="evenodd" d="M2357.69 176.752L2287.27 18.7881H2296.02L2358.66 154.155L2357.69 176.752Z" fill="#3D2227"/>
<path fill-rule="evenodd" clip-rule="evenodd" d="M2457.87 506.529L2478 501.299V515.024L2456.7 534.272L2457.87 506.529Z" fill="#3D2227"/>
<path fill-rule="evenodd" clip-rule="evenodd" d="M2319.7 1091.52L2337.48 663.154L2334.76 938.785L2344.3 935.897V916.523L2367.15 906.522L2356.23 949.999L2344.3 954.895L2367.15 956.987L2377.36 930.792L2412.3 964.645L2391.92 1048.79L2365.98 1063.52L2372.97 1072.1L2412.3 1075.74L2401.38 1030.01L2425.15 989.542V964.645L2440.97 915.142L2433.68 1091.52H2319.7Z" fill="#634911"/>
<path opacity="0.6" fill-rule="evenodd" clip-rule="evenodd" d="M2433.68 1091.52L2456.7 534.272L2425.15 863.548L2423.1 1081.14L2392.63 1090.6L2419.25 881.457L2373.68 1091.52H2360.58L2458.79 483.724L2460.38 444.934L2380.33 863.548L2332.55 1037.7L2325.56 949.998L2353.22 537.662L2398.87 18.7881H2381.71L2350.87 539.21L2326.9 911.083L2319.7 1091.52H2433.68Z" fill="#45162D"/>
<path opacity="0.6" fill-rule="evenodd" clip-rule="evenodd" d="M2440.97 18.7881L2413.39 383.255L2390.04 624.615L2432.68 390.159L2456.7 18.7881H2440.97Z" fill="#45162D"/>
<path opacity="0.6" fill-rule="evenodd" clip-rule="evenodd" d="M2326.73 964.644L2366.44 784.168L2390.04 624.615L2326.73 964.644Z" fill="#45162D"/>
<path opacity="0.6" fill-rule="evenodd" clip-rule="evenodd" d="M2460.93 18.7881L2456.7 315.885L2460.38 444.934L2465.15 330.028L2478 18.7881H2460.93Z" fill="#45162D"/>
<path opacity="0.6" fill-rule="evenodd" clip-rule="evenodd" d="M2432.68 390.159L2418.03 321.702L2413.06 378.527L2390.04 624.615L2432.68 390.159Z" fill="#45162D"/>
<path opacity="0.6" fill-rule="evenodd" clip-rule="evenodd" d="M2370.12 759.229L2398.87 701.274L2370.12 800.362V759.229Z" fill="#45162D"/>
<g style="mix-blend-mode:soft-light">
<path fill-rule="evenodd" clip-rule="evenodd" d="M2364.26 18.7881L2328.86 825.678L2381.71 18.7881H2364.26Z" fill="#F5DEDE"/>
</g>
<path opacity="0.2" fill-rule="evenodd" clip-rule="evenodd" d="M2418.79 18.7881L2331.54 1088.96L2433.68 1091.52L2478 18.7881H2418.79Z" fill="#242C4D"/>
<path fill-rule="evenodd" clip-rule="evenodd" d="M1227.68 18.7043H1184.16L1201.69 968.075L1202.15 977.7H1256.64L1227.68 18.7043Z" fill="url(#paint4_linear_1_404)"/>
<path fill-rule="evenodd" clip-rule="evenodd" d="M1241.78 486.276L1251.82 481.883V474.643H1241.78V486.276Z" fill="#3D2227"/>
<path fill-rule="evenodd" clip-rule="evenodd" d="M1195.12 612.229L1169.56 656.961L1172.15 658.258L1195.12 622.857V612.229Z" fill="#3D2227"/>
<path fill-rule="evenodd" clip-rule="evenodd" d="M1197.43 737.553L1184.16 744.96V749.772L1197.68 751.739L1197.43 737.553Z" fill="#3D2227"/>
<path opacity="0.6" fill-rule="evenodd" clip-rule="evenodd" d="M1184.16 18.7043L1195.12 612.229L1189.64 160.6L1195.12 148.757L1212.91 861.999L1202.15 977.7L1215.96 865.389L1224.58 977.7H1231.53L1214.83 833.922L1216.21 685.331L1256.64 977.7L1254.79 917.653L1207.34 509.291L1202.15 50.5481L1235 261.612L1233.45 209.558L1210.1 18.7043H1184.16Z" fill="#5B2A2E"/>
<g style="mix-blend-mode:soft-light">
<path fill-rule="evenodd" clip-rule="evenodd" d="M1210.1 18.7043L1248.39 760.484L1227.68 18.7043H1210.1Z" fill="#F5DEDE"/>
</g>
<path opacity="0.2" fill-rule="evenodd" clip-rule="evenodd" d="M1184.16 18.7043L1224.58 977.7H1202.15L1184.16 18.7043Z" fill="#242C4D"/>
<path fill-rule="evenodd" clip-rule="evenodd" d="M135.953 18.7043H91.6814L17.0724 984.353L16.6121 994.145H72.0144L135.953 18.7043Z" fill="url(#paint5_linear_1_404)"/>
<path fill-rule="evenodd" clip-rule="evenodd" d="M104.779 494.31L115.408 489.833L116.077 482.468H105.909L104.779 494.31Z" fill="#3D2227"/>
<path fill-rule="evenodd" clip-rule="evenodd" d="M45.0248 622.439L0 609.258L2.51064 610.555L44.0205 633.235L45.0248 622.439Z" fill="#3D2227"/>
<path fill-rule="evenodd" clip-rule="evenodd" d="M35.1912 749.898L20.964 757.43L20.5037 762.325L34.0614 764.334L35.1912 749.898Z" fill="#3D2227"/>
<path opacity="0.6" fill-rule="evenodd" clip-rule="evenodd" d="M91.6814 18.7043L45.0247 622.439L83.438 163.026L90.175 150.975L38.7898 876.436L16.6121 994.145L41.5934 879.909L39.4175 994.145H46.4893L43.5183 847.898L59.4192 696.755L72.0144 994.145L76.0316 933.051L67.4952 517.702L106.871 51.0921L119.759 265.755L123.232 212.822L118.085 18.7043H91.6814Z" fill="#5B2A2E"/>
<g style="mix-blend-mode:soft-light">
<path fill-rule="evenodd" clip-rule="evenodd" d="M118.086 18.7043L84.7772 773.205L135.953 18.7043H118.086Z" fill="#F5DEDE"/>
</g>
<path opacity="0.2" fill-rule="evenodd" clip-rule="evenodd" d="M91.6814 18.7043L39.4175 994.145H16.6121L91.6814 18.7043Z" fill="#242C4D"/>
<path fill-rule="evenodd" clip-rule="evenodd" d="M2888.54 975.942L2873.14 0H2937.83L2964.48 968.578L2888.54 975.942Z" fill="url(#paint6_linear_1_404)"/>
<path fill-rule="evenodd" clip-rule="evenodd" d="M2855.65 514.145L2881.46 526.531L2881.67 541.511L2855.65 519.25V514.145Z" fill="#3D2227"/>
<path fill-rule="evenodd" clip-rule="evenodd" d="M2946.16 302.955L2960.51 279.731L2953.35 275.924L2945.61 282.619L2946.16 302.955Z" fill="#3D2227"/>
<path fill-rule="evenodd" clip-rule="evenodd" d="M2888.54 975.942L2885.31 772.494L2896.61 806.932L2890.96 824.925L2896.61 835.303L2936.49 832.039L2941.47 885.014L2932.51 906.104L2957.24 937.989L2960.38 819.443L2964.48 968.578L2888.54 975.942Z" fill="#634911"/>
<path fill-rule="evenodd" clip-rule="evenodd" d="M2918.79 816.389L2924.9 812.246L2918.79 792.37L2908.83 785.8L2918.79 816.389Z" fill="#634911"/>
<path fill-rule="evenodd" clip-rule="evenodd" d="M2926.66 825.511L2937.58 820.74L2944.52 825.511V830.909L2926.66 825.511Z" fill="#634911"/>
<path fill-rule="evenodd" clip-rule="evenodd" d="M2914.31 825.845V820.74L2904.44 816.388L2908.83 825.845H2914.31Z" fill="#634911"/>
<path fill-rule="evenodd" clip-rule="evenodd" d="M2904.44 717.887L2908.83 704.245L2897.7 677.465V713.409L2904.44 717.887Z" fill="#634911"/>
<path opacity="0.6" fill-rule="evenodd" clip-rule="evenodd" d="M2964.48 968.578L2946.16 302.955V440.791L2942.22 464.182L2926.66 270.191L2946.16 275.923L2918.79 257.052L2873.14 0L2873.93 51.8036L2921.47 271.906L2946.16 575.74L2908.83 491.465L2876.9 238.682L2878.37 330.614L2907.83 501.592L2941.59 598.629L2955.32 743.286L2941.47 955.229L2926.66 825.511L2881.67 541.511L2883.01 624.573L2924.9 825.846L2935.57 963.891L2964.48 968.578Z" fill="#45162D"/>
<path opacity="0.6" fill-rule="evenodd" clip-rule="evenodd" d="M2926.24 972.301L2885.31 689.725L2915.69 973.306L2926.24 972.301Z" fill="#45162D"/>
<path opacity="0.6" fill-rule="evenodd" clip-rule="evenodd" d="M2881.46 526.531L2890.75 598.629L2881.25 514.145L2881.46 526.531Z" fill="#45162D"/>
<g style="mix-blend-mode:soft-light">
<path fill-rule="evenodd" clip-rule="evenodd" d="M2873.93 51.8036L2889.79 125.241L2885.98 310.696L2877.82 246.088L2873.93 51.8036Z" fill="#F5DEDE"/>
</g>
<g style="mix-blend-mode:soft-light">
<path fill-rule="evenodd" clip-rule="evenodd" d="M2878.03 310.696L2906.95 496.57L2903.26 677.464L2885.31 535.569L2878.03 310.696Z" fill="#F5DEDE"/>
</g>
<g style="mix-blend-mode:soft-light">
<path fill-rule="evenodd" clip-rule="evenodd" d="M2883.01 624.573L2900.46 788.353L2883.93 685.122L2883.01 624.573Z" fill="#F5DEDE"/>
</g>
<g style="mix-blend-mode:soft-light">
<path fill-rule="evenodd" clip-rule="evenodd" d="M2888.24 957.74L2892.51 777.432L2883.93 685.122L2888.24 957.74Z" fill="#F5DEDE"/>
</g>
<path opacity="0.2" fill-rule="evenodd" clip-rule="evenodd" d="M2935.57 963.891L2916.86 0H2937.83L2964.48 968.578L2935.57 963.891Z" fill="#242C4D"/>
<path fill-rule="evenodd" clip-rule="evenodd" d="M633.025 993.308L713.074 18.7043H763.288L677.506 993.308H633.025Z" fill="url(#paint7_linear_1_404)"/>
<path fill-rule="evenodd" clip-rule="evenodd" d="M725.921 443.176L774.963 523.016L773.498 524.48L725.377 449.411L725.921 443.176Z" fill="#3D2227"/>
<path fill-rule="evenodd" clip-rule="evenodd" d="M671.146 529.167L664.367 524.481V518.832H672.025L671.146 529.167Z" fill="#3D2227"/>
<path fill-rule="evenodd" clip-rule="evenodd" d="M740.734 275.128L763.288 251.779L760.903 248.055L742.198 258.474L740.734 275.128Z" fill="#3D2227"/>
<path fill-rule="evenodd" clip-rule="evenodd" d="M698.01 760.484L720.523 751.739V756.132L698.01 770.36V760.484Z" fill="#3D2227"/>
<path opacity="0.6" fill-rule="evenodd" clip-rule="evenodd" d="M633.025 993.308L671.146 529.167L658.802 735.335L679.933 584.904L740.734 18.7043H747.178L679.096 612.229L652.399 817.895L682.109 749.228L725.377 449.411L723.159 474.476L684.536 751.739L650.475 824.841V984.353L696.797 774.251L656.375 993.308H633.025Z" fill="#45162D"/>
<g style="mix-blend-mode:soft-light">
<path fill-rule="evenodd" clip-rule="evenodd" d="M747.178 18.7043L690.646 511.55L697.048 645.663L725.921 443.176L763.288 18.7043H747.178Z" fill="#F5DEDE"/>
</g>
<g style="mix-blend-mode:soft-light">
<path fill-rule="evenodd" clip-rule="evenodd" d="M683.95 569.756L682.109 749.228L664.367 788.604L683.95 569.756Z" fill="#9F878F"/>
</g>
<path opacity="0.2" fill-rule="evenodd" clip-rule="evenodd" d="M747.178 18.7043L656.375 993.308H633.025L713.074 18.7043H747.178Z" fill="#242C4D"/>
<path d="M983.098 21.5079H924.599V1007.16H983.098V21.5079Z" fill="url(#paint8_linear_1_404)"/>
<path fill-rule="evenodd" clip-rule="evenodd" d="M983.098 483.264L1010.46 489.08V501.006L983.098 508.789V483.264Z" fill="#643046"/>
<path fill-rule="evenodd" clip-rule="evenodd" d="M924.599 615.032L912.38 608.212L918.49 599.717L924.599 603.065V615.032Z" fill="#643046"/>
<path opacity="0.6" fill-rule="evenodd" clip-rule="evenodd" d="M924.599 1007.16V160.307L934.056 710.898L939.914 763.288L950.166 462.425L942.55 21.5079H953.848V466.526V998.873L983.098 508.789L964.644 1005.15L924.599 1007.16Z" fill="#401E2D"/>
<path opacity="0.6" fill-rule="evenodd" clip-rule="evenodd" d="M965.732 21.5079L983.098 483.263L974.394 21.5079H965.732Z" fill="#401E2D"/>
<g style="mix-blend-mode:soft-light">
<path fill-rule="evenodd" clip-rule="evenodd" d="M974.394 21.5079L983.098 363.504V21.5079H974.394Z" fill="#F5DEDE"/>
</g>
<g style="mix-blend-mode:soft-light">
<path fill-rule="evenodd" clip-rule="evenodd" d="M965.732 21.5079L981.675 445.938L977.658 599.717L954.434 821.117L953.849 21.5079H965.732Z" fill="#957B83"/>
</g>
<path opacity="0.2" fill-rule="evenodd" clip-rule="evenodd" d="M952.719 1008.54L953.848 21.5079H924.599V1007.16L952.719 1008.54Z" fill="#242C4D"/>
<path fill-rule="evenodd" clip-rule="evenodd" d="M391.08 18.7043L573.146 1004.35H435.854L285.38 81.6805L271.697 18.7043H391.08Z" fill="url(#paint9_linear_1_404)"/>
<path fill-rule="evenodd" clip-rule="evenodd" d="M458.826 385.347L509.542 214.663H501.424L453.094 354.424L458.826 385.347Z" fill="#643046"/>
<path fill-rule="evenodd" clip-rule="evenodd" d="M467.321 431.334L471.296 421.836L477.698 426.606L469.497 443.176L467.321 431.334Z" fill="#643046"/>
<path fill-rule="evenodd" clip-rule="evenodd" d="M411.751 130.639L455.855 96.4937L409.199 116.788L411.751 130.639Z" fill="#643046"/>
<path opacity="0.6" fill-rule="evenodd" clip-rule="evenodd" d="M435.854 1004.35L285.381 81.6805L391.75 700.144L396.938 711.61L323.585 213.617L285.381 39.4593V18.7043H310.236L402.88 486.276L453.094 694.579L333.962 18.7043H355.428L423.97 506.027L522.179 1001.01L467.321 431.334L484.519 524.48L488.285 612.229L547.454 1004.35H435.854Z" fill="#401E2D"/>
<path opacity="0.6" fill-rule="evenodd" clip-rule="evenodd" d="M453.094 354.424L439.536 345.888L441.419 467.279L483.013 751.739L439.536 463.722L432.506 322.538L449.37 334.171L453.094 354.424Z" fill="#401E2D"/>
<g style="mix-blend-mode:soft-light">
<path fill-rule="evenodd" clip-rule="evenodd" d="M355.428 18.7043L401.374 345.302L432.548 458.157L432.506 322.538L449.37 334.171L391.08 18.7043H355.428Z" fill="#BD9668"/>
</g>
<path opacity="0.2" fill-rule="evenodd" clip-rule="evenodd" d="M310.236 18.7043L522.179 1001.01L435.854 1004.35L285.38 81.6805L271.697 18.7043H310.236Z" fill="#242C4D"/>
<path fill-rule="evenodd" clip-rule="evenodd" d="M551.387 785.466L686.879 809.777L662.944 712.572L575.447 612.898L664.158 696.169L660.057 677.548L562.685 563.396L657.254 628.967L563.438 552.935L658.467 612.898L593.106 354.257L549.629 330.154L579.13 338.983L539.126 169.68L497.742 412.253L535.36 403.424L485.732 458.533L467.07 712.572L538.205 654.45L455.395 733.829L437.318 807.267L551.387 785.466Z" fill="#666B3E"/>
<path fill-rule="evenodd" clip-rule="evenodd" d="M554.943 874.804L541.386 534.44L537.452 283.079L538.666 874.804H554.943Z" fill="#532937"/>
<path fill-rule="evenodd" clip-rule="evenodd" d="M540.214 458.533L567.789 466.317L569.547 469.957L540.256 461.212L540.214 458.533Z" fill="#3D2227"/>
<path fill-rule="evenodd" clip-rule="evenodd" d="M811.577 921.419L674.326 948.576L705.375 840.031L800.195 728.766L705.375 821.745L710.815 800.906L816.598 673.489L717.175 746.675L816.598 661.815L717.175 728.766L801.492 439.996L846.768 413.132L816.598 422.965L869.029 233.953L892.63 504.772L855.639 494.896L901.25 556.408V840.031L834.382 775.172L911.376 863.799L924.055 945.772L811.577 921.419Z" fill="#666B3E"/>
<path fill-rule="evenodd" clip-rule="evenodd" d="M801.492 1021.18L839.989 641.143L862.376 360.533L817.728 1021.18H801.492Z" fill="#532937"/>
<path fill-rule="evenodd" clip-rule="evenodd" d="M846.768 556.408L818.606 565.112L816.598 569.17L846.517 559.421L846.768 556.408Z" fill="#3D2227"/>
<g style="mix-blend-mode:soft-light">
<path fill-rule="evenodd" clip-rule="evenodd" d="M674.326 948.576L811.577 921.419L816.891 869.364L687.8 901.459L674.326 948.576Z" fill="#46351C"/>
</g>
<g style="mix-blend-mode:soft-light">
<path fill-rule="evenodd" clip-rule="evenodd" d="M692.612 884.721L821.159 827.268L694.495 874.176L692.612 884.721Z" fill="#46351C"/>
</g>
<g style="mix-blend-mode:soft-light">
<path fill-rule="evenodd" clip-rule="evenodd" d="M901.25 840.031L834.382 775.172L901.25 821.745V840.031Z" fill="#46351C"/>
</g>
<g style="mix-blend-mode:soft-light">
<path fill-rule="evenodd" clip-rule="evenodd" d="M734.415 673.196L844.55 624.489L735.378 665.413L734.415 673.196Z" fill="#46351C"/>
</g>
<g style="mix-blend-mode:soft-light">
<path fill-rule="evenodd" clip-rule="evenodd" d="M892.63 504.772L855.639 494.896L891.165 488.076L892.63 504.772Z" fill="#46351C"/>
</g>
<g style="mix-blend-mode:soft-light">
<path fill-rule="evenodd" clip-rule="evenodd" d="M771.615 542.348L851.622 519.877L853.045 477.656L783.541 501.549L771.615 542.348Z" fill="#46351C"/>
</g>
<g style="mix-blend-mode:soft-light">
<path fill-rule="evenodd" clip-rule="evenodd" d="M816.598 422.965L855.639 413.132L823.795 404.972L816.598 422.965Z" fill="#46351C"/>
</g>
<g style="mix-blend-mode:soft-light">
<path fill-rule="evenodd" clip-rule="evenodd" d="M901.25 761.53L844.55 624.489L902.714 732.448L901.25 761.53Z" fill="#46351C"/>
</g>
<path fill-rule="evenodd" clip-rule="evenodd" d="M1945.52 889.826L2055.78 935.939L2042.69 759.815L1956.53 717.928L2041.68 744.249L2037.75 704.705L1942.09 630.348L2036.2 687.675L2035.16 675.707L1945.06 622.732L2034.36 667.213L2009.88 508.789L1940.96 440.205L1995.49 471.966L1910.83 248.808L1869.7 480.167L1917.36 451.378L1848.19 504.563L1813.04 752.157L1893.55 700.479L1812.75 762.242L1779.44 922.214L1945.52 889.826Z" fill="#99A154"/>
<path fill-rule="evenodd" clip-rule="evenodd" d="M1944.77 1039.67L1916.48 344.842L1919.87 344.549L1954.81 1038.75L1944.77 1039.67Z" fill="url(#paint10_linear_1_404)"/>
<g style="mix-blend-mode:soft-light">
<path fill-rule="evenodd" clip-rule="evenodd" d="M1813.04 752.157L1929.87 673.28L1926.19 603.525L1819.57 706.421L1813.04 752.157Z" fill="#5B4226"/>
</g>
<g style="mix-blend-mode:soft-light">
<path fill-rule="evenodd" clip-rule="evenodd" d="M1783.29 901.794L1935.06 815.636L1779.44 922.214L1783.29 901.794Z" fill="#5B4226"/>
</g>
<g style="mix-blend-mode:soft-light">
<path fill-rule="evenodd" clip-rule="evenodd" d="M2041.68 744.248L1942.93 716.422L2040.43 731.779L2041.68 744.248Z" fill="#5B4226"/>
</g>
<g style="mix-blend-mode:soft-light">
<path fill-rule="evenodd" clip-rule="evenodd" d="M2051.39 876.562L1944.6 788.186L1942.93 747.931L2050.35 841.245L2051.39 876.562Z" fill="#5B4226"/>
</g>
<g style="mix-blend-mode:soft-light">
<path fill-rule="evenodd" clip-rule="evenodd" d="M2025.2 607.793L1932.09 483.013L1929.87 427.82L2009.88 508.789L2025.2 607.793Z" fill="#806926"/>
</g>
<g style="mix-blend-mode:soft-light">
<path fill-rule="evenodd" clip-rule="evenodd" d="M1832.25 632.021L1925.9 576.242L1924.27 565.572L1831.08 625.201L1832.25 632.021Z" fill="#806926"/>
</g>
<path fill-rule="evenodd" clip-rule="evenodd" d="M2511.64 916.732L2392.89 1000.5L2404.14 869.406L2524.74 693.491L2408.2 829.36L2410.8 809.652L2515.91 674.786L2432.39 771.782L2498.04 499.708L2538.21 463.764L2506.16 482.971L2536.08 358.106L2567.17 491.339L2558.63 486.318L2555.66 500.127L2565.29 505.776L2592.4 679.306L2530.35 648.843L2596.5 687.256L2614.7 792.077L2521.93 776.845L2524.4 793.039L2621.52 805.467L2657.18 948.659L2511.64 916.732Z" fill="#666B3E"/>
<path fill-rule="evenodd" clip-rule="evenodd" d="M2505.49 1021.64L2538.21 463.764L2514.9 1018.83L2505.49 1021.64Z" fill="#532937"/>
<path fill-rule="evenodd" clip-rule="evenodd" d="M2518.71 928.867L2661.91 953.053L2661.19 958.493L2518.42 935.018L2518.71 928.867Z" fill="#5A5028"/>
<g style="mix-blend-mode:soft-light">
<path fill-rule="evenodd" clip-rule="evenodd" d="M2392.89 1000.5L2396.86 954.016L2515.99 842.541L2511.64 916.732L2392.89 1000.5Z" fill="#46351C"/>
</g>
<g style="mix-blend-mode:soft-light">
<path fill-rule="evenodd" clip-rule="evenodd" d="M2402.05 893.927L2519.05 790.529L2403.85 882.838L2402.05 893.927Z" fill="#46351C"/>
</g>
<g style="mix-blend-mode:soft-light">
<path fill-rule="evenodd" clip-rule="evenodd" d="M2408.2 829.361L2526.37 675.247L2524.74 693.491L2408.2 829.361Z" fill="#46351C"/>
</g>
<g style="mix-blend-mode:soft-light">
<path fill-rule="evenodd" clip-rule="evenodd" d="M2524.65 776.887L2527.12 750.525L2610.52 767.974L2614.7 792.077L2524.65 776.887Z" fill="#46351C"/>
</g>
<g style="mix-blend-mode:soft-light">
<path fill-rule="evenodd" clip-rule="evenodd" d="M2607.51 750.525L2529.05 681.942L2605.83 741.068L2607.51 750.525Z" fill="#46351C"/>
</g>
<g style="mix-blend-mode:soft-light">
<path fill-rule="evenodd" clip-rule="evenodd" d="M2643.54 893.927L2523.23 820.782L2523.11 809.275L2637.43 869.322L2643.54 893.927Z" fill="#46351C"/>
</g>
<g style="mix-blend-mode:soft-light">
<path fill-rule="evenodd" clip-rule="evenodd" d="M2479.46 576.577L2533.99 535.611L2535.41 511.634L2490.13 532.473L2479.46 576.577Z" fill="#46351C"/>
</g>
<g style="mix-blend-mode:soft-light">
<path fill-rule="evenodd" clip-rule="evenodd" d="M2468.08 623.778L2532.14 567.078L2465.65 633.779L2468.08 623.778Z" fill="#46351C"/>
</g>
<g style="mix-blend-mode:soft-light">
<path fill-rule="evenodd" clip-rule="evenodd" d="M2588.26 657.295L2531.73 618.254L2587.8 649.847L2588.26 657.295Z" fill="#46351C"/>
</g>
<defs>
<linearGradient id="paint0_linear_1_404" x1="2743.17" y1="1006.99" x2="2743.17" y2="2.05029" gradientUnits="userSpaceOnUse">
<stop stop-color="#6D496F"/>
<stop offset="1" stop-color="#4F2A48"/>
</linearGradient>
<linearGradient id="paint1_linear_1_404" x1="2117.92" y1="1076.96" x2="2117.92" y2="14.6036" gradientUnits="userSpaceOnUse">
<stop stop-color="#6D496F"/>
<stop offset="1" stop-color="#4F2A48"/>
</linearGradient>
<linearGradient id="paint2_linear_1_404" x1="2243.88" y1="1076.96" x2="2243.88" y2="14.6036" gradientUnits="userSpaceOnUse">
<stop stop-color="#6D496F"/>
<stop offset="1" stop-color="#4F2A48"/>
</linearGradient>
<linearGradient id="paint3_linear_1_404" x1="2398.87" y1="1091.52" x2="2398.87" y2="18.7881" gradientUnits="userSpaceOnUse">
<stop stop-color="#6D496F"/>
<stop offset="1" stop-color="#4F2A48"/>
</linearGradient>
<linearGradient id="paint4_linear_1_404" x1="1220.4" y1="977.7" x2="1220.4" y2="18.7043" gradientUnits="userSpaceOnUse">
<stop stop-color="#6D496F"/>
<stop offset="1" stop-color="#4F2A48"/>
</linearGradient>
<linearGradient id="paint5_linear_1_404" x1="208.177" y1="996.906" x2="114.78" y2="21.0894" gradientUnits="userSpaceOnUse">
<stop stop-color="#6D496F"/>
<stop offset="1" stop-color="#4F2A48"/>
</linearGradient>
<linearGradient id="paint6_linear_1_404" x1="2918.83" y1="975.942" x2="2918.83" y2="0" gradientUnits="userSpaceOnUse">
<stop stop-color="#6D496F"/>
<stop offset="1" stop-color="#4F2A48"/>
</linearGradient>
<linearGradient id="paint7_linear_1_404" x1="698.178" y1="993.308" x2="698.178" y2="18.7043" gradientUnits="userSpaceOnUse">
<stop stop-color="#6D496F"/>
<stop offset="1" stop-color="#4F2A48"/>
</linearGradient>
<linearGradient id="paint8_linear_1_404" x1="953.848" y1="1007.16" x2="953.848" y2="21.5079" gradientUnits="userSpaceOnUse">
<stop stop-color="#6D496F"/>
<stop offset="1" stop-color="#4F2A48"/>
</linearGradient>
<linearGradient id="paint9_linear_1_404" x1="422.421" y1="1004.35" x2="422.421" y2="18.7043" gradientUnits="userSpaceOnUse">
<stop stop-color="#6D496F"/>
<stop offset="1" stop-color="#4F2A48"/>
</linearGradient>
<linearGradient id="paint10_linear_1_404" x1="1935.65" y1="1039.67" x2="1935.65" y2="344.549" gradientUnits="userSpaceOnUse">
<stop stop-color="#6D496F"/>
<stop offset="1" stop-color="#4F2A48"/>
</linearGradient>
</defs>
</svg>
